<?xml version="1.0" encoding="UTF-8" standalone="no"?>
<!-- Created with Inkscape (http://www.inkscape.org/) -->

<svg
   width="48"
   height="47.999935"
   viewBox="0 0 12.699998 12.699981"
   version="1.1"
   id="svg1"
   xmlns="http://www.w3.org/2000/svg"
   xmlns:svg="http://www.w3.org/2000/svg">
  <defs
     id="defs1" />
  <g
     id="layer1"
     transform="translate(-102.53358,-60.366617)">
    <path
       id="ellipse1"
       style="display:inline;fill:#be002f;fill-opacity:1;stroke:#000009;stroke-width:0;stroke-linecap:round;stroke-linejoin:round;paint-order:stroke fill markers"
       d="m 105.70862,63.112998 v 8.490476 0.0073 h 0.002 a 3.5898997,0.93395761 0 0 0 3.58821,0.926644 3.5898997,0.93395761 0 0 0 3.58815,-0.926644 h 0.002 v -0.0073 -8.490476 z" />
    <ellipse
       style="display:inline;fill:#8a0022;fill-opacity:1;stroke:#9b4400;stroke-width:0;stroke-linecap:round;stroke-linejoin:round;stroke-dasharray:none;stroke-opacity:1;paint-order:stroke fill markers"
       id="path1"
       cx="109.29851"
       cy="63.071552"
       rx="3.5898991"
       ry="0.93395764" />
    <path
       id="rect2-3"
       style="display:inline;fill:#f2be45;fill-opacity:1;stroke:#000009;stroke-width:0;stroke-linecap:round;stroke-linejoin:round;paint-order:stroke fill markers"
       d="m 105.7086,64.472577 v 0.831335 0.09016 h 0.021 a 3.5898997,0.93395761 0 0 0 3.56894,0.843821 3.5898997,0.93395761 0 0 0 3.5689,-0.843821 h 0.021 v -0.08997 a 3.5898997,0.93395761 0 0 0 4e-5,-1.79e-4 3.5898997,0.93395761 0 0 0 -4e-5,-5.13e-4 v -0.830812 h -0.021 a 3.5898997,0.93395761 0 0 1 -3.5689,0.843821 3.5898997,0.93395761 0 0 1 -3.56894,-0.843821 z" />
    <path
       id="path3"
       style="display:inline;fill:#f2be45;fill-opacity:1;stroke:#000009;stroke-width:0;stroke-linecap:round;stroke-linejoin:round;paint-order:stroke fill markers"
       d="m 105.7086,69.406754 v 0.831335 0.09016 h 0.021 a 3.5898997,0.93395761 0 0 0 3.56894,0.843823 3.5898997,0.93395761 0 0 0 3.5689,-0.843823 h 0.021 v -0.08997 a 3.5898997,0.93395761 0 0 0 4e-5,-1.81e-4 3.5898997,0.93395761 0 0 0 -4e-5,-5.13e-4 v -0.830812 h -0.021 a 3.5898997,0.93395761 0 0 1 -3.5689,0.843821 3.5898997,0.93395761 0 0 1 -3.56894,-0.843821 z" />
    <g
       id="g17"
       transform="matrix(0.09221728,0,0,0.09221728,95.040915,44.06963)">
      <ellipse
         style="fill:#0aa344;fill-opacity:1;stroke:#000009;stroke-width:0;stroke-linecap:round;stroke-linejoin:round;stroke-dasharray:none;paint-order:stroke fill markers"
         id="path16"
         cx="256.12851"
         cy="19.744579"
         rx="5.5665631"
         ry="16.941715"
         transform="rotate(45)" />
      <ellipse
         style="fill:#0aa344;fill-opacity:1;stroke:#000009;stroke-width:0;stroke-linecap:round;stroke-linejoin:round;stroke-dasharray:none;paint-order:stroke fill markers"
         id="ellipse16"
         cx="-37.479038"
         cy="238.39404"
         rx="5.5665631"
         ry="16.941715"
         transform="rotate(-45)" />
    </g>
  </g>
</svg>
